<?xml version="1.0" standalone="no"?>
<!DOCTYPE svg PUBLIC "-//W3C//DTD SVG 20010904//EN"
 "http://www.w3.org/TR/2001/REC-SVG-20010904/DTD/svg10.dtd">
<svg version="1.0" xmlns="http://www.w3.org/2000/svg"
 width="286.000000pt" height="286.000000pt" viewBox="0 0 286.000000 286.000000"
 preserveAspectRatio="xMidYMid meet">
<metadata>
Created by potrace 1.14, written by Peter Selinger 2001-2017
</metadata>
<g transform="translate(0.000000,286.000000) scale(0.100000,-0.100000)"
fill="#000000" stroke="none">
<path d="M1117 2335 c-169 -62 -310 -115 -313 -117 -3 -3 78 -66 179 -140
l184 -135 27 20 c43 31 115 34 169 7 l45 -22 54 41 c47 35 54 45 50 67 -3 17
3 36 18 56 l23 31 -49 153 c-35 115 -52 154 -63 153 -9 -1 -155 -52 -324 -114z"/>
<path d="M1493 2438 c2 -7 24 -74 47 -150 40 -128 44 -136 71 -142 30 -6 59
-41 62 -74 1 -16 43 -36 221 -105 205 -80 221 -85 238 -70 10 9 35 19 55 22
35 6 45 17 135 146 54 76 95 142 91 146 -10 8 -887 239 -909 239 -9 0 -14 -6
-11 -12z"/>
<path d="M641 2053 c-67 -81 -120 -152 -118 -158 2 -5 65 -34 140 -64 134 -53
137 -54 157 -36 28 25 75 23 104 -4 l23 -22 91 23 90 22 5 35 c2 20 7 43 11
52 5 12 -31 43 -156 134 -90 66 -177 130 -195 143 l-31 23 -121 -148z"/>
<path d="M2342 2038 c-76 -108 -92 -137 -87 -158 9 -37 16 -40 92 -52 69 -11
69 -11 97 17 l28 28 -12 121 c-20 202 -11 198 -118 44z"/>
<path d="M2480 2130 c0 -14 5 -74 12 -135 11 -109 12 -110 50 -146 21 -20 38
-43 38 -51 0 -10 28 -21 96 -37 53 -12 99 -20 101 -17 4 4 -251 358 -289 401
-4 5 -8 -1 -8 -15z"/>
<path d="M1634 2002 c-20 -17 -21 -25 -16 -140 2 -67 9 -122 14 -122 23 0 58
-51 58 -84 0 -32 6 -39 76 -88 42 -29 82 -51 88 -49 6 2 29 7 50 10 37 6 46
14 127 127 l88 120 -14 40 -13 39 -208 82 c-115 45 -213 82 -219 82 -5 0 -20
-8 -31 -17z"/>
<path d="M1475 1960 c-34 -27 -49 -46 -46 -57 2 -10 4 -43 5 -74 l0 -56 53
-28 c48 -25 57 -26 79 -15 l24 14 -6 120 c-4 67 -7 122 -8 123 -1 1 -12 4 -26
7 -19 4 -37 -4 -75 -34z"/>
<path d="M520 1844 c0 -10 167 -445 172 -448 1 -1 45 -39 96 -85 52 -45 96
-81 98 -78 10 10 -27 412 -39 416 -24 8 -57 51 -57 74 0 21 -14 29 -117 70
-157 62 -153 60 -153 51z"/>
<path d="M2251 1791 c-12 -22 -41 -34 -83 -35 -22 -1 -41 -21 -112 -118 l-85
-118 7 -54 7 -55 127 -91 c114 -81 130 -90 149 -79 12 6 37 9 55 6 31 -5 38
-1 98 66 51 56 63 75 55 88 -15 29 -10 49 20 80 29 29 29 29 20 101 -14 108
-17 118 -43 129 -13 6 -30 23 -37 38 -19 35 -24 38 -87 46 -30 4 -61 9 -68 12
-7 2 -17 -4 -23 -16z"/>
<path d="M1028 1758 c-59 -15 -78 -24 -78 -37 0 -17 -30 -56 -49 -62 -11 -4
17 -418 29 -432 3 -4 65 102 137 235 l130 243 -31 37 c-35 43 -35 43 -138 16z"/>
<path d="M1390 1725 c-30 -32 -83 -49 -129 -41 l-37 6 -137 -256 c-76 -141
-137 -257 -135 -259 2 -1 68 -38 148 -83 l145 -80 145 23 c91 15 146 29 149
37 2 7 18 26 34 42 l30 30 -5 214 -5 214 -31 25 c-24 19 -32 32 -32 57 0 30
-5 36 -58 64 l-59 32 -23 -25z"/>
<path d="M2550 1725 c-23 -25 -23 -26 -11 -117 11 -86 21 -108 46 -108 16 1
211 187 203 195 -6 6 -191 55 -209 55 -3 0 -16 -11 -29 -25z"/>
<path d="M2712 1567 c-82 -82 -92 -97 -87 -119 8 -30 -16 -82 -41 -92 -14 -5
-15 -18 -10 -94 10 -136 13 -148 42 -161 23 -10 36 -5 135 54 128 78 118 46
89 300 -11 94 -20 178 -20 188 0 9 -3 17 -8 17 -4 0 -49 -42 -100 -93z"/>
<path d="M1642 1588 c-8 -8 -12 -65 -12 -189 0 -183 7 -272 21 -267 4 2 49 61
99 132 79 111 90 132 81 150 -6 12 -12 34 -13 51 -2 23 -17 39 -77 82 -81 58
-82 58 -99 41z"/>
<path d="M1940 1380 c-8 -5 -29 -10 -46 -10 -28 0 -39 -12 -121 -127 -89 -125
-91 -128 -77 -156 8 -15 13 -34 12 -43 -2 -10 29 -33 95 -70 94 -52 98 -54
122 -38 17 11 36 14 62 10 37 -6 41 -3 136 85 93 87 97 93 97 133 l0 43 -129
91 c-71 51 -130 92 -132 92 -2 0 -11 -5 -19 -10z"/>
<path d="M2437 1291 c-64 -64 -66 -67 -60 -107 5 -39 9 -42 71 -73 64 -32 65
-32 84 -13 18 18 19 29 13 135 -10 147 -17 151 -108 58z"/>
<path d="M2345 1103 c-13 -9 -35 -13 -61 -10 -41 4 -45 2 -140 -84 -98 -88
-99 -89 -100 -137 l-1 -48 66 -37 c36 -20 84 -47 106 -61 l40 -24 150 62 150
63 3 55 c3 52 1 57 -33 91 -20 20 -35 45 -35 59 0 19 -12 30 -63 55 -57 28
-65 29 -82 16z"/>
<path d="M1676 992 c-3 -5 41 -122 97 -260 l101 -252 118 0 c65 0 118 3 118 8
0 23 -117 285 -130 289 -70 22 -100 53 -100 101 0 13 -27 33 -95 70 -102 56
-101 56 -109 44z"/>
<path d="M90 798 c-64 -33 -90 -88 -90 -187 0 -85 20 -140 64 -180 35 -33 134
-42 180 -17 35 19 81 80 72 95 -4 5 -22 15 -42 21 -33 11 -38 10 -64 -15 -56
-54 -110 -6 -110 98 0 93 54 137 111 90 30 -26 30 -26 69 -8 47 21 49 32 15
69 -53 58 -132 71 -205 34z"/>
<path d="M1312 803 c-64 -31 -82 -117 -37 -171 16 -19 52 -40 94 -57 83 -31
99 -46 76 -69 -27 -26 -69 -20 -103 15 -30 30 -33 31 -64 19 -47 -19 -49 -21
-31 -58 27 -55 77 -82 151 -82 103 0 152 41 152 129 0 57 -35 93 -121 126 -71
27 -94 49 -68 66 23 14 48 10 70 -12 16 -16 28 -19 52 -15 56 11 63 20 41 56
-38 64 -138 90 -212 53z"/>
<path d="M360 605 l0 -205 45 0 45 0 0 69 c0 93 11 121 49 121 37 0 41 -12 41
-111 l0 -79 50 0 50 0 0 83 c-1 153 -24 197 -107 197 -24 0 -53 -5 -64 -10
-18 -10 -19 -7 -19 65 l0 75 -45 0 -45 0 0 -205z"/>
<path d="M680 605 l0 -205 50 0 50 0 0 70 0 70 33 0 c29 0 35 -6 70 -70 l37
-70 50 0 c28 0 50 5 50 10 0 6 -16 42 -35 80 -33 66 -34 70 -16 79 45 24 65
125 36 181 -28 54 -47 60 -192 60 l-133 0 0 -205z m230 100 c7 -8 10 -25 6
-40 -6 -23 -10 -25 -71 -25 l-65 0 0 40 0 40 59 0 c40 0 63 -5 71 -15z"/>
<path d="M1100 605 l0 -205 45 0 45 0 0 205 0 205 -45 0 -45 0 0 -205z"/>
</g>
</svg>
